<svg width="531" height="190" viewBox="0 0 531 190" fill="none" xmlns="http://www.w3.org/2000/svg">
<path d="M180.023 0C144.247 0 115.148 29.1355 115.148 64.9481V124.762C115.148 152.51 92.5916 175.097 64.8788 175.097C37.1461 175.097 14.6012 152.51 14.6012 124.762V94.8552C14.6012 90.805 11.3383 87.5464 7.30461 87.5464C3.2669 87.5464 0 90.805 0 94.8552V124.762C0 160.579 29.0946 189.714 64.8788 189.714C100.655 189.714 129.754 160.579 129.754 124.762V64.9481C129.754 37.204 152.306 14.6337 180.023 14.6337C207.744 14.6337 230.289 37.204 230.289 64.9481V94.8552C230.289 98.8855 233.564 102.164 237.597 102.164C241.635 102.164 244.898 98.8855 244.898 94.8552V64.9481C244.898 29.1355 215.795 0 180.023 0ZM209.913 102.164C213.95 102.164 217.213 98.8855 217.213 94.8552V64.9481C217.213 44.4249 200.535 27.7241 180.039 27.7241C159.531 27.7241 142.861 44.4249 142.861 64.9481V94.8552C142.861 98.8855 146.124 102.164 150.162 102.164C154.195 102.164 157.47 98.8855 157.47 94.8552V64.9481C157.47 52.4934 167.591 42.3578 180.039 42.3578C192.472 42.3578 202.604 52.4934 202.604 64.9481V94.8552C202.604 98.8855 205.867 102.164 209.913 102.164ZM64.8668 161.986C85.3589 161.986 102.041 145.286 102.041 124.762V94.8552C102.041 90.805 98.7779 87.5464 94.7402 87.5464C90.6945 87.5464 87.4316 90.805 87.4316 94.8552V124.762C87.4316 137.217 77.3114 147.353 64.8668 147.353C52.4302 147.353 42.298 137.217 42.298 124.762V94.8552C42.298 90.805 39.0231 87.5464 34.9934 87.5464C30.9517 87.5464 27.6768 90.805 27.6768 94.8552V124.762C27.6768 145.286 44.3588 161.986 64.8668 161.986ZM322.848 147.353C310.4 147.353 300.28 137.217 300.28 124.762C300.28 112.308 310.4 102.164 322.848 102.164C335.281 102.164 345.413 112.308 345.413 124.762C345.413 137.217 335.281 147.353 322.848 147.353ZM322.86 189.714C358.637 189.714 387.735 160.579 387.735 124.762V36.8642C387.735 32.8099 384.464 29.5433 380.439 29.5433C376.389 29.5433 373.13 32.8099 373.13 36.8642V124.762C373.13 152.51 350.581 175.097 322.86 175.097C295.14 175.097 272.591 152.51 272.591 124.762C272.591 97.0103 295.14 74.44 322.86 74.44C330.724 74.44 338.444 76.2992 345.413 79.7977V95.2551C339.139 90.4331 331.331 87.5464 322.848 87.5464C302.34 87.5464 285.658 104.231 285.658 124.762C285.658 145.286 302.34 161.986 322.848 161.986C343.344 161.986 360.022 145.286 360.022 124.762V75.2437V75.0957V36.8642C360.022 32.8099 356.76 29.5433 352.722 29.5433C348.676 29.5433 345.413 32.8099 345.413 36.8642V63.8845C338.22 61.2137 330.6 59.8063 322.86 59.8063C287.076 59.8063 257.974 88.9378 257.974 124.762C257.974 160.579 287.076 189.714 322.86 189.714ZM465.69 147.353C453.249 147.353 443.125 137.217 443.125 124.762C443.125 112.308 453.249 102.164 465.69 102.164C478.13 102.164 488.262 112.308 488.262 124.762C488.262 137.217 478.13 147.353 465.69 147.353ZM465.69 189.714C473.681 189.714 481.541 188.215 488.909 185.38C490.052 187.939 492.6 189.714 495.563 189.714C499.597 189.714 502.872 186.436 502.872 182.398V124.762C502.872 104.231 486.198 87.5464 465.69 87.5464C445.198 87.5464 428.508 104.231 428.508 124.762C428.508 145.286 445.198 161.986 465.69 161.986C474.18 161.986 481.996 159.084 488.262 154.278V169.719C481.293 173.238 473.573 175.097 465.69 175.097C437.973 175.097 415.42 152.51 415.42 124.762C415.42 97.0103 437.973 74.44 465.69 74.44C493.41 74.44 515.955 97.0103 515.955 124.762V182.398C515.955 186.436 519.222 189.714 523.256 189.714C527.302 189.714 530.572 186.436 530.572 182.398V124.762C530.572 88.9378 501.462 59.8063 465.69 59.8063C429.913 59.8063 400.819 88.9378 400.819 124.762C400.819 160.579 429.913 189.714 465.69 189.714Z" fill="#0099CC"/>
</svg>
