<?xml version="1.0" encoding="UTF-8"?>
<svg width="148px" height="84px" viewBox="0 0 148 84" version="1.1" xmlns="http://www.w3.org/2000/svg" xmlns:xlink="http://www.w3.org/1999/xlink">
    <title>Logo</title>
    <g id="symbols" stroke="none">
        <g id="Logo" fill="#fff" transform="translate(0.000000, -0.000501)">
            <path d="M80.9887136,72.8044847 C77.8660181,72.8044847 75.3243825,70.2650148 75.3243825,67.1400533 C75.3243825,64.0180995 77.8660181,61.4716118 80.9887136,61.4716118 C84.1084035,61.4716118 86.6490373,64.0180995 86.6490373,67.1400533 C86.6490373,70.2650148 84.1084035,72.8044847 80.9887136,72.8044847 M80.9887136,57.8042685 C75.8453327,57.8042685 71.6617022,61.9939426 71.6617022,67.1400533 C71.6617022,72.2821539 75.8453327,76.471828 80.9887136,76.471828 C86.129089,76.471828 90.3127194,72.2821539 90.3127194,67.1400533 C90.3127194,61.9939426 86.129089,57.8042685 80.9887136,57.8042685 M45.1583634,0 C36.1839952,0 28.8846821,7.30561258 28.8846821,16.2854907 L28.8846821,31.2837018 C28.8846821,38.241428 23.2263621,43.9048568 16.274683,43.9048568 C9.31799489,43.9048568 3.66268028,38.241428 3.66268028,31.2837018 L3.66268028,23.7845962 C3.66268028,22.7690088 2.84418745,21.9519271 1.83234197,21.9519271 C0.819494659,21.9519271 0,22.7690088 0,23.7845962 L0,31.2837018 C0,40.2645825 7.29831123,47.570195 16.274683,47.570195 C25.2490512,47.570195 32.5483643,40.2645825 32.5483643,31.2837018 L32.5483643,16.2854907 C32.5483643,9.32876699 38.2056825,3.66934843 45.1583634,3.66934843 C52.112046,3.66934843 57.7673606,9.32876699 57.7673606,16.2854907 L57.7673606,23.7845962 C57.7673606,24.7951709 58.5888589,25.6172653 59.6007044,25.6172653 C60.6135517,25.6172653 61.4320446,24.7951709 61.4320446,23.7845962 L61.4320446,16.2854907 C61.4320446,7.30561258 54.1317297,0 45.1583634,0 M52.6560382,25.6172653 C53.6688855,25.6172653 54.4873783,24.7951709 54.4873783,23.7845962 L54.4873783,16.2854907 C54.4873783,11.1393799 50.3037479,6.95171094 45.1623707,6.95171094 C40.0179879,6.95171094 35.8363612,11.1393799 35.8363612,16.2854907 L35.8363612,23.7845962 C35.8363612,24.7951709 36.654854,25.6172653 37.6677013,25.6172653 C38.6795468,25.6172653 39.5010451,24.7951709 39.5010451,23.7845962 L39.5010451,16.2854907 C39.5010451,13.1625343 42.0396753,10.6210594 45.1623707,10.6210594 C48.2810588,10.6210594 50.8226944,13.1625343 50.8226944,16.2854907 L50.8226944,23.7845962 C50.8226944,24.7951709 51.6411872,25.6172653 52.6560382,25.6172653 M16.2716776,40.6174815 C21.412053,40.6174815 25.5966852,36.4298126 25.5966852,31.2837018 L25.5966852,23.7845962 C25.5966852,22.7690088 24.7781924,21.9519271 23.7653451,21.9519271 C22.7504941,21.9519271 21.9320013,22.7690088 21.9320013,23.7845962 L21.9320013,31.2837018 C21.9320013,34.4066582 19.3933711,36.9481331 16.2716776,36.9481331 C13.1519876,36.9481331 10.610352,34.4066582 10.610352,31.2837018 L10.610352,23.7845962 C10.610352,22.7690088 9.78885368,21.9519271 8.77801002,21.9519271 C7.76416088,21.9519271 6.94266257,22.7690088 6.94266257,23.7845962 L6.94266257,31.2837018 C6.94266257,36.4298126 11.1272948,40.6174815 16.2716776,40.6174815 M80.9857081,36.9481331 C77.8630127,36.9481331 75.3243825,34.4066582 75.3243825,31.2837018 C75.3243825,28.1607454 77.8630127,25.6172653 80.9857081,25.6172653 C84.1043962,25.6172653 86.6460318,28.1607454 86.6460318,31.2837018 C86.6460318,34.4066582 84.1043962,36.9481331 80.9857081,36.9481331 M80.9887136,47.570195 C89.9630817,47.570195 97.2623948,40.2645825 97.2623948,31.2837018 L97.2623948,9.24354988 C97.2623948,8.2269599 96.4418983,7.40787311 95.4320565,7.40787311 C94.4162037,7.40787311 93.5987127,8.2269599 93.5987127,9.24354988 L93.5987127,31.2837018 C93.5987127,38.241428 87.9423962,43.9048568 80.9887136,43.9048568 C74.0350309,43.9048568 68.3787145,38.241428 68.3787145,31.2837018 C68.3787145,24.324973 74.0350309,18.6655544 80.9887136,18.6655544 C82.9613113,18.6655544 84.8978433,19.1317421 86.6460318,20.0089771 L86.6460318,23.8848517 C85.0721613,22.6757713 83.1135891,21.9519271 80.9857081,21.9519271 C75.8413253,21.9519271 71.6566931,26.1355859 71.6566931,31.2837018 C71.6566931,36.4298126 75.8413253,40.6174815 80.9857081,40.6174815 C86.1270853,40.6174815 90.3107158,36.4298126 90.3107158,31.2837018 L90.3107158,18.8670678 L90.3107158,18.8299733 L90.3107158,9.24354988 C90.3107158,8.2269599 89.4922229,7.40787311 88.4793756,7.40787311 C87.4645246,7.40787311 86.6460318,8.2269599 86.6460318,9.24354988 L86.6460318,16.0188113 C84.841741,15.3491051 82.9302547,14.996206 80.9887136,14.996206 C72.0123417,14.996206 64.7120269,22.300816 64.7120269,31.2837018 C64.7120269,40.2645825 72.0123417,47.570195 80.9887136,47.570195 M145.702744,43.3554571 C144.690899,43.3554571 143.873408,44.1745439 143.873408,45.1861211 C143.873408,52.146855 138.216089,57.8042685 131.262407,57.8042685 L114.441728,57.8042685 L114.441728,81.5938775 C114.441728,82.6064573 115.262224,83.425544 116.273068,83.425544 C117.287919,83.425544 118.108415,82.6064573 118.108415,81.5938775 L118.108415,61.4716118 L131.262407,61.4716118 C140.235773,61.4716118 147.538092,54.171012 147.538092,45.1861211 C147.538092,44.1745439 146.715591,43.3554571 145.702744,43.3554571 M116.81706,36.9481331 C113.696368,36.9481331 111.156736,34.4066582 111.156736,31.2837018 C111.156736,28.1607454 113.696368,25.6172653 116.81706,25.6172653 C119.937752,25.6172653 122.479387,28.1607454 122.479387,31.2837018 C122.479387,34.4066582 119.937752,36.9481331 116.81706,36.9481331 M116.81706,47.570195 C118.821716,47.570195 120.793312,47.1942372 122.641684,46.4834263 C122.928206,47.125061 123.567372,47.570195 124.310728,47.570195 C125.322573,47.570195 126.144071,46.7481006 126.144071,45.7355208 L126.144071,31.2837018 C126.144071,26.1355859 121.961443,21.9519271 116.81706,21.9519271 C111.676685,21.9519271 107.490049,26.1355859 107.490049,31.2837018 C107.490049,36.4298126 111.676685,40.6174815 116.81706,40.6174815 C118.946945,40.6174815 120.907521,39.8896272 122.479387,38.684557 L122.479387,42.5564214 C120.731199,43.4386691 118.794667,43.9048568 116.81706,43.9048568 C109.864379,43.9048568 104.207061,38.241428 104.207061,31.2837018 C104.207061,24.324973 109.864379,18.6655544 116.81706,18.6655544 C123.770743,18.6655544 129.426057,24.324973 129.426057,31.2837018 L129.426057,45.7355208 C129.426057,46.7481006 130.245552,47.570195 131.257398,47.570195 C132.272248,47.570195 133.092745,46.7481006 133.092745,45.7355208 L133.092745,31.2837018 C133.092745,22.300816 125.790426,14.996206 116.81706,14.996206 C107.842692,14.996206 100.544381,22.300816 100.544381,31.2837018 C100.544381,40.2645825 107.842692,47.570195 116.81706,47.570195 M80.9887136,79.7582007 C74.0350309,79.7582007 68.3787145,74.0977796 68.3787145,67.1400533 C68.3787145,60.1813245 74.0350309,54.5199009 80.9887136,54.5199009 C87.9423962,54.5199009 93.5987127,60.1813245 93.5987127,67.1400533 C93.5987127,74.0977796 87.9423962,79.7582007 80.9887136,79.7582007 M91.2574425,54.5199009 L131.262407,54.5199009 C136.40178,54.5199009 140.587414,50.334237 140.587414,45.1861211 C140.587414,44.1745439 139.76792,43.3554571 138.756074,43.3554571 C137.743227,43.3554571 136.924734,44.1745439 136.924734,45.1861211 C136.924734,48.3110826 134.383098,50.8525575 131.262407,50.8525575 L80.9887136,50.8525575 C72.0123417,50.8525575 64.7120269,58.1591727 64.7120269,67.1400533 C64.7120269,76.120934 72.0123417,83.425544 80.9887136,83.425544 C89.9630817,83.425544 97.2623948,76.120934 97.2623948,67.1400533 C97.2623948,65.145973 96.8847059,63.2421226 96.2275073,61.4716118 L107.490049,61.4716118 L107.490049,81.5938775 C107.490049,82.6064573 108.310545,83.425544 109.325396,83.425544 C110.335238,83.425544 111.156736,82.6064573 111.156736,81.5938775 L111.156736,57.8042685 L94.3060027,57.8042685 C93.4414258,56.575137 92.419562,55.4693197 91.2574425,54.5199009 M45.1623707,61.4716118 C48.2810588,61.4716118 50.8226944,64.0180995 50.8226944,67.1400533 C50.8226944,70.2650148 48.2810588,72.8044847 45.1623707,72.8044847 C42.0396753,72.8044847 39.5010451,70.2650148 39.5010451,67.1400533 C39.5010451,64.0180995 42.0396753,61.4716118 45.1623707,61.4716118 M45.1583634,50.8525575 C43.2168222,50.8525575 41.3003268,51.2034515 39.5010451,51.8721552 L39.5010451,45.0948887 C39.5010451,44.0823089 38.6795468,43.2622196 37.6677013,43.2622196 C36.654854,43.2622196 35.8363612,44.0823089 35.8363612,45.0948887 L35.8363612,54.68833 C35.8333557,54.7003606 35.8363612,54.7083811 35.8363612,54.717404 L35.8363612,67.1400533 C35.8363612,72.2821539 40.0179879,76.471828 45.1623707,76.471828 C50.3037479,76.471828 54.4873783,72.2821539 54.4873783,67.1400533 C54.4873783,61.9939426 50.3037479,57.8042685 45.1623707,57.8042685 C43.0304824,57.8042685 41.0719102,58.5331254 39.5010451,59.7422058 L39.5010451,55.8613184 C41.2502354,54.985086 43.1827601,54.5199009 45.1583634,54.5199009 C52.112046,54.5199009 57.7673606,60.1813245 57.7673606,67.1400533 C57.7673606,74.0977796 52.112046,79.7582007 45.1583634,79.7582007 C38.2056825,79.7582007 32.5483643,74.0977796 32.5483643,67.1400533 L32.5483643,45.0948887 C32.5483643,44.0823089 31.7298714,43.2622196 30.7150205,43.2622196 C29.703175,43.2622196 28.8846821,44.0823089 28.8846821,45.0948887 L28.8846821,67.1400533 C28.8846821,76.120934 36.1839952,83.425544 45.1583634,83.425544 C54.1317297,83.425544 61.4320446,76.120934 61.4320446,67.1400533 C61.4320446,58.1591727 54.1317297,50.8525575 45.1583634,50.8525575" id="Fill-1"></path>
        </g>
    </g>
</svg>
